<?xml version="1.0" encoding="utf-8"?>
<!-- Generator: Adobe Illustrator 16.0.0, SVG Export Plug-In . SVG Version: 6.00 Build 0)  -->
<!DOCTYPE svg PUBLIC "-//W3C//DTD SVG 1.1//EN" "http://www.w3.org/Graphics/SVG/1.1/DTD/svg11.dtd">
<svg version="1.1" xmlns="http://www.w3.org/2000/svg" xmlns:xlink="http://www.w3.org/1999/xlink" x="0px" y="0px"
	 width="492.191px" height="83.225px" viewBox="0 0 492.191 83.225" enable-background="new 0 0 492.191 83.225"
	 xml:space="preserve">
<g id="Layer_4" display="none">
	<rect x="-4.043" y="-9.624" display="inline" width="542.667" height="104"/>
</g>
<g id="Layer_1">
	<path fill="#FFFFFF" d="M484.226,36.993c0-0.682,0.236-1.264,0.711-1.739c0.473-0.472,1.053-0.709,1.738-0.709
		c0.684,0,1.266,0.237,1.738,0.709c0.475,0.476,0.711,1.058,0.711,1.739c0,0.686-0.236,1.266-0.711,1.74
		c-0.473,0.474-1.055,0.711-1.738,0.711c-0.686,0-1.266-0.237-1.738-0.711C484.462,38.258,484.226,37.678,484.226,36.993
		 M473.979,18.622c-0.422-1.687-1.016-2.99-1.777-3.912c-0.766-0.922-1.543-1.595-2.332-2.015c-0.789-0.422-1.514-0.666-2.174-0.73
		c-0.658-0.066-1.105-0.099-1.342-0.099c-0.922,0-1.785,0.144-2.59,0.435c-0.803,0.288-1.467,0.684-1.994,1.184
		c-0.473,0.423-0.863,0.91-1.166,1.464c-0.303,0.551-0.553,1.303-0.75,2.251c-0.199,0.949-0.336,2.146-0.414,3.596
		c-0.08,1.448-0.121,3.279-0.121,5.492c0,1.422,0.008,2.667,0.021,3.733s0.078,2.008,0.197,2.826
		c0.117,0.815,0.309,1.533,0.572,2.152c0.262,0.619,0.635,1.191,1.107,1.719c0.525,0.606,1.203,1.094,2.033,1.461
		c0.83,0.369,1.783,0.555,2.865,0.555c1.186,0,2.197-0.212,3.043-0.633c0.842-0.422,1.568-0.937,2.174-1.542
		c0.738-0.736,1.297-1.508,1.678-2.312c0.383-0.803,0.797-1.756,1.246-2.864h0.67l-0.156,7.824h-0.594l-1.463-1.976
		c-0.738,0.58-1.691,1.133-2.865,1.658c-1.17,0.527-2.508,0.791-4.01,0.791c-1.5,0-2.961-0.335-4.383-1.009
		c-1.424-0.67-2.695-1.617-3.814-2.844c-1.119-1.224-2.021-2.705-2.705-4.445c-0.688-1.738-1.027-3.674-1.027-5.809
		c0-2.423,0.379-4.549,1.145-6.38c0.764-1.829,1.746-3.363,2.943-4.603c1.197-1.238,2.527-2.174,3.99-2.805
		c1.461-0.632,2.889-0.95,4.287-0.95c1.449,0,2.668,0.245,3.654,0.732c0.986,0.486,1.957,1.034,2.904,1.641l1.305-1.897h0.592
		l0.08,7.31H473.979z M441.331,12.141v27.065h-0.75l-14.658-22.442c-0.422-0.632-0.857-1.284-1.305-1.957
		c-0.449-0.669-0.818-1.271-1.105-1.797v25.366h3.635v0.83h-8.297v-0.83h3.635V12.141h-3.516v-0.829h8.771l8.178,12.604
		c0.367,0.553,0.736,1.113,1.105,1.68c0.369,0.565,0.736,1.139,1.107,1.719c0.078,0.131,0.223,0.368,0.434,0.71
		c0.211,0.344,0.434,0.706,0.672,1.087c0.238,0.382,0.461,0.752,0.672,1.105c0.211,0.357,0.355,0.602,0.436,0.731V12.141h-3.32
		v-0.829h7.428v0.829H441.331z M409.868,12.141h-3.475v26.235h3.475v0.83h-11.457v-0.83h3.398V12.141h-3.438v-0.829h11.496V12.141z
		 M374.179,44.699c0.525-0.395,0.955-0.731,1.283-1.009c0.328-0.276,0.678-0.664,1.047-1.164c0.607-0.764,0.994-1.469,1.166-2.113
		c0.17-0.647,0.256-1.154,0.256-1.523c0-0.052-0.006-0.164-0.02-0.335c-0.012-0.172-0.051-0.356-0.119-0.553
		c-0.066-0.199-0.162-0.396-0.297-0.593c-0.131-0.197-0.328-0.362-0.592-0.493l0.041,0.395c0,0.158-0.033,0.354-0.1,0.593
		c-0.066,0.237-0.17,0.461-0.316,0.672c-0.145,0.21-0.348,0.388-0.611,0.533c-0.264,0.145-0.594,0.216-0.988,0.216
		c-0.658,0-1.184-0.216-1.582-0.652c-0.395-0.434-0.592-0.953-0.592-1.56c0-0.843,0.297-1.488,0.889-1.936
		c0.594-0.448,1.271-0.671,2.037-0.671c0.551,0,1.045,0.11,1.48,0.335c0.434,0.225,0.797,0.521,1.088,0.889
		c0.289,0.368,0.506,0.797,0.65,1.284c0.146,0.487,0.219,0.994,0.219,1.521c0,1.107-0.332,2.272-0.99,3.495
		c-0.656,1.225-1.764,2.391-3.316,3.499L374.179,44.699z M365.079,30.396h-2.607c-0.055,0.5-0.133,1.086-0.238,1.758
		s-0.33,1.389-0.672,2.152c-0.262,0.555-0.637,1.141-1.127,1.76c-0.484,0.619-1.1,1.198-1.838,1.736
		c-0.736,0.542-1.611,0.989-2.625,1.345c-1.016,0.355-2.18,0.533-3.498,0.533c-0.314,0-0.803-0.027-1.463-0.079
		c-0.656-0.054-1.408-0.236-2.25-0.555c-0.842-0.313-1.74-0.814-2.688-1.499c-0.949-0.686-1.855-1.66-2.725-2.924
		c-1.135-1.659-1.865-3.279-2.193-4.859c-0.328-1.581-0.494-3.03-0.494-4.347c0-0.737,0.037-1.508,0.119-2.313
		c0.08-0.803,0.229-1.612,0.453-2.43c0.225-0.815,0.533-1.64,0.93-2.468c0.393-0.832,0.906-1.653,1.541-2.471
		c0.5-0.658,1.074-1.283,1.719-1.877c0.643-0.591,1.355-1.113,2.133-1.56c0.777-0.448,1.607-0.805,2.488-1.067
		c0.883-0.264,1.813-0.396,2.787-0.396c1.344,0,2.502,0.212,3.477,0.632c0.973,0.424,1.855,0.897,2.646,1.424l1.307-1.58h0.67
		l0.236,8.257h-0.752c-0.023-0.131-0.092-0.421-0.195-0.868c-0.107-0.449-0.27-0.962-0.494-1.542
		c-0.225-0.578-0.521-1.191-0.889-1.836c-0.371-0.646-0.838-1.232-1.404-1.76c-0.564-0.525-1.23-0.966-1.994-1.323
		c-0.766-0.355-1.66-0.533-2.688-0.533c-0.764,0-1.502,0.104-2.211,0.316c-0.449,0.158-0.994,0.441-1.641,0.85
		c-0.646,0.409-1.191,1.061-1.639,1.956c-0.291,0.554-0.516,1.283-0.672,2.191c-0.16,0.909-0.279,1.858-0.357,2.846
		c-0.08,0.987-0.125,1.955-0.139,2.904c-0.012,0.948-0.02,1.764-0.02,2.448c0,0.159,0,0.534,0,1.127
		c0,0.594,0.014,1.271,0.041,2.036c0.025,0.763,0.064,1.554,0.117,2.368c0.055,0.818,0.117,1.542,0.197,2.176
		c0.027,0.314,0.113,0.795,0.258,1.441c0.146,0.646,0.414,1.297,0.811,1.955c0.395,0.659,0.955,1.233,1.678,1.718
		c0.725,0.488,1.693,0.732,2.906,0.732c0.158,0,0.406-0.014,0.75-0.039c0.34-0.026,0.717-0.113,1.125-0.258
		c0.41-0.145,0.83-0.375,1.264-0.69c0.436-0.316,0.824-0.752,1.168-1.305c0.525-0.869,0.836-1.824,0.926-2.865
		c0.096-1.04,0.141-2.112,0.141-3.219h-4.109v-0.908h11.734V30.396z M328.952,12.141v27.065h-0.75l-14.658-22.442
		c-0.42-0.632-0.854-1.284-1.305-1.957c-0.447-0.669-0.814-1.271-1.105-1.797v25.366h3.634v0.83h-8.296v-0.83h3.635V12.141h-3.517
		v-0.829h8.771l8.18,12.604c0.369,0.553,0.738,1.113,1.105,1.68c0.371,0.565,0.738,1.139,1.107,1.719
		c0.078,0.131,0.224,0.368,0.434,0.71c0.211,0.344,0.436,0.706,0.672,1.087c0.236,0.382,0.461,0.752,0.672,1.105
		c0.213,0.357,0.354,0.602,0.435,0.731V12.141h-3.319v-0.829h7.43v0.829H328.952z M297.489,12.141h-3.476v26.235h3.476v0.83h-11.457
		v-0.83h3.398V12.141h-3.438v-0.829h11.496V12.141z M259.31,12.181v26.156h2.135c0.606,0,1.237-0.007,1.896-0.021
		c0.658-0.014,1.316-0.079,1.975-0.198c0.66-0.117,1.293-0.302,1.897-0.553c0.606-0.25,1.159-0.612,1.659-1.086
		c0.553-0.499,0.996-1.1,1.324-1.798c0.329-0.698,0.572-1.515,0.73-2.449s0.257-2.01,0.296-3.221c0.04-1.211,0.06-2.58,0.06-4.109
		c0-1-0.012-2.016-0.039-3.042c-0.025-1.026-0.105-2.055-0.238-3.081c-0.078-0.606-0.223-1.311-0.434-2.114
		c-0.211-0.803-0.633-1.562-1.264-2.271c-0.476-0.526-0.988-0.937-1.542-1.225c-0.553-0.292-1.179-0.508-1.876-0.653
		c-0.699-0.145-1.496-0.231-2.391-0.256c-0.896-0.027-1.924-0.053-3.082-0.079H259.31z M251.251,38.376h3.517V12.141h-3.279v-0.829
		h8.889c1.423,0,2.739,0.025,3.951,0.079c1.212,0.052,2.358,0.251,3.438,0.592c1.187,0.344,2.306,0.89,3.358,1.64
		c1.055,0.752,1.977,1.688,2.766,2.807c0.791,1.119,1.423,2.417,1.896,3.892c0.475,1.476,0.711,3.095,0.711,4.858
		c0,1.949-0.33,3.827-0.987,5.632c-0.659,1.804-1.659,3.402-3.003,4.8c-0.869,0.896-1.75,1.58-2.646,2.054
		c-0.896,0.476-1.785,0.823-2.667,1.048s-1.752,0.363-2.608,0.415c-0.855,0.052-1.679,0.079-2.469,0.079h-10.865V38.376z
		 M225.99,29.446h7.825l-3.914-11.536L225.99,29.446z M234.091,30.316h-8.418l-2.686,8.061h3.635v0.83h-7.428v-0.83h2.686
		l9.404-27.144h1.266l9.049,27.144h2.923l0.04,0.83h-11.419v-0.83h3.674L234.091,30.316z M197.294,12.181v11.734h1.422
		c0.421,0,0.876-0.006,1.363-0.021c0.488-0.011,0.98-0.052,1.481-0.117s0.974-0.163,1.423-0.296c0.447-0.13,0.855-0.33,1.225-0.594
		c0.738-0.526,1.238-1.217,1.502-2.074c0.262-0.854,0.395-1.744,0.395-2.665c0-0.606-0.08-1.298-0.237-2.075
		c-0.157-0.776-0.421-1.429-0.79-1.955c-0.369-0.502-0.797-0.883-1.283-1.146c-0.488-0.263-1.016-0.455-1.582-0.572
		c-0.566-0.119-1.152-0.186-1.758-0.198s-1.211-0.02-1.816-0.02H197.294z M213.849,38.693c-0.554,0.289-1.094,0.479-1.62,0.573
		c-0.528,0.091-0.975,0.138-1.345,0.138c-0.604,0-1.244-0.099-1.915-0.296c-0.671-0.198-1.298-0.561-1.877-1.087
		c-0.474-0.422-0.843-0.875-1.106-1.363c-0.263-0.487-0.461-1.002-0.592-1.541c-0.133-0.539-0.218-1.086-0.258-1.639
		c-0.039-0.553-0.059-1.107-0.059-1.66l-0.079-1.738c-0.026-0.395-0.065-0.822-0.118-1.284c-0.054-0.461-0.165-0.907-0.336-1.343
		s-0.421-0.843-0.75-1.227c-0.33-0.381-0.785-0.689-1.363-0.928c-0.58-0.237-1.239-0.382-1.977-0.434
		c-0.738-0.054-1.777-0.054-3.121,0v13.512h3.517v0.83h-11.498v-0.83h3.556V12.141h-3.675v-0.829h10.946
		c0.789,0,1.561,0.013,2.311,0.04c0.75,0.025,1.476,0.091,2.172,0.195c0.699,0.107,1.371,0.271,2.016,0.495
		c0.646,0.225,1.258,0.546,1.838,0.968c0.896,0.659,1.521,1.404,1.877,2.232c0.355,0.83,0.532,1.667,0.532,2.509
		c0,1.002-0.217,1.904-0.651,2.707c-0.435,0.805-1.033,1.489-1.798,2.055c-0.764,0.566-1.665,1.021-2.706,1.363
		c-1.041,0.343-2.167,0.553-3.378,0.632c1.448,0.212,2.587,0.553,3.417,1.028c0.83,0.472,1.402,0.855,1.719,1.146
		c0.633,0.551,1.119,1.145,1.462,1.778c0.343,0.631,0.593,1.251,0.751,1.855c0.158,0.605,0.244,1.192,0.256,1.759
		c0.014,0.565,0.021,1.086,0.021,1.56v1.107c-0.026,0.527-0.026,0.947,0,1.265c0.025,0.315,0.064,0.606,0.117,0.868
		c0.105,0.368,0.297,0.718,0.573,1.048c0.276,0.329,0.678,0.493,1.206,0.493c0.342,0,0.895-0.143,1.658-0.434L213.849,38.693z
		 M176.814,38.376v0.83h-12.366v-0.83h3.99V12.141h-1.107c-0.579,0-1.086,0.007-1.521,0.021c-0.435,0.014-0.822,0.052-1.165,0.118
		c-0.342,0.064-0.659,0.163-0.949,0.296c-0.289,0.133-0.592,0.331-0.908,0.594c-0.448,0.367-0.851,0.843-1.206,1.422
		c-0.355,0.58-0.665,1.198-0.927,1.856c-0.264,0.659-0.481,1.311-0.653,1.955c-0.17,0.647-0.295,1.206-0.375,1.681h-0.71
		l0.355-8.771h22.64l0.632,8.771h-0.632c-0.132-0.475-0.31-1.033-0.533-1.681c-0.224-0.645-0.475-1.296-0.751-1.955
		c-0.276-0.658-0.566-1.251-0.869-1.777c-0.302-0.527-0.586-0.91-0.85-1.146c-0.395-0.37-0.778-0.647-1.146-0.83
		c-0.369-0.185-0.744-0.316-1.126-0.395c-0.382-0.079-0.791-0.125-1.224-0.139c-0.435-0.014-0.903-0.021-1.403-0.021h-1.027v26.235
		H176.814z M136.421,38.178c0.818,0.291,1.621,0.434,2.411,0.434c0.791,0,1.581-0.143,2.372-0.434
		c1.053-0.367,1.876-0.882,2.469-1.541c0.592-0.656,1.033-1.499,1.324-2.527c0.29-1.028,0.466-2.259,0.532-3.695
		c0.067-1.435,0.1-3.114,0.1-5.037c0-2.37-0.053-4.333-0.158-5.887c-0.106-1.555-0.316-2.752-0.632-3.596
		c-0.317-0.868-0.745-1.567-1.285-2.095c-0.54-0.526-1.105-0.928-1.698-1.203c-0.592-0.278-1.166-0.463-1.719-0.555
		c-0.552-0.093-0.987-0.139-1.304-0.139c-0.342,0-0.79,0.046-1.342,0.139c-0.554,0.092-1.127,0.276-1.719,0.555
		c-0.593,0.275-1.159,0.677-1.699,1.203c-0.54,0.527-0.968,1.227-1.284,2.095c-0.316,0.844-0.526,2.041-0.631,3.596
		c-0.105,1.554-0.159,3.517-0.159,5.887c0,1.923,0.034,3.603,0.1,5.037c0.065,1.437,0.244,2.667,0.532,3.695
		c0.29,1.028,0.731,1.871,1.324,2.527C134.545,37.296,135.369,37.811,136.421,38.178z M149.381,48.293
		c-5.425,0-9.06-0.976-10.904-2.925c-0.395-0.42-0.718-0.88-0.968-1.383c-0.25-0.5-0.44-1.013-0.573-1.539
		c-0.131-0.526-0.217-1.047-0.256-1.561c-0.041-0.515-0.06-0.996-0.06-1.442c-0.29-0.079-0.678-0.191-1.166-0.336
		c-0.487-0.146-1.039-0.383-1.659-0.711c-0.619-0.328-1.277-0.784-1.976-1.364c-0.698-0.579-1.389-1.33-2.075-2.251
		c-0.632-0.844-1.152-1.686-1.561-2.528c-0.407-0.844-0.717-1.667-0.928-2.471c-0.209-0.803-0.355-1.587-0.434-2.351
		c-0.079-0.765-0.119-1.488-0.119-2.172c0-0.869,0.061-1.733,0.178-2.589c0.119-0.856,0.31-1.706,0.573-2.549
		c0.342-1.079,0.844-2.172,1.503-3.28c0.658-1.105,1.474-2.098,2.448-2.982c0.976-0.882,2.082-1.605,3.319-2.172
		c1.238-0.566,2.609-0.852,4.109-0.852c1.187,0,2.266,0.172,3.241,0.516c0.974,0.342,1.836,0.763,2.586,1.263
		c0.752,0.5,1.397,1.035,1.937,1.602c0.54,0.565,0.967,1.06,1.284,1.48c0.631,0.844,1.152,1.686,1.561,2.528
		c0.408,0.844,0.717,1.673,0.929,2.489c0.21,0.817,0.356,1.607,0.434,2.372c0.08,0.764,0.119,1.488,0.119,2.174
		c0,0.869-0.059,1.73-0.178,2.587c-0.119,0.855-0.311,1.705-0.573,2.549c-0.211,0.711-0.547,1.515-1.007,2.41
		c-0.461,0.896-1.061,1.777-1.798,2.646c-0.738,0.869-1.621,1.659-2.648,2.371c-1.028,0.711-2.211,1.239-3.556,1.58
		c0,0.606,0.014,1.251,0.041,1.937c0.026,0.685,0.125,1.363,0.296,2.034c0.171,0.674,0.435,1.298,0.79,1.877
		c0.356,0.579,0.876,1.053,1.56,1.423c0.318,0.185,0.64,0.33,0.97,0.436c0.328,0.104,0.703,0.19,1.125,0.255
		c0.421,0.067,0.909,0.126,1.461,0.179c0.554,0.052,1.212,0.104,1.975,0.157V48.293z M117.524,30.514l-0.751,8.692H96.03v-0.83
		h3.517V12.141h-3.438v-0.829h19.952l0.316,7.665h-0.553c-0.026-0.079-0.066-0.219-0.119-0.415
		c-0.053-0.198-0.112-0.414-0.178-0.652c-0.065-0.236-0.125-0.46-0.177-0.67c-0.053-0.212-0.092-0.357-0.118-0.436
		c-0.106-0.343-0.224-0.658-0.355-0.947c-0.133-0.291-0.303-0.621-0.514-0.99c-0.395-0.656-0.823-1.171-1.284-1.541
		c-0.46-0.369-0.988-0.645-1.58-0.827c-0.592-0.187-1.258-0.291-1.995-0.317c-0.738-0.025-1.581-0.04-2.529-0.04h-3.121v12.524
		h1.263c0.475,0,0.922-0.012,1.345-0.037c0.421-0.027,0.823-0.087,1.203-0.18c0.383-0.092,0.719-0.244,1.009-0.454
		s0.54-0.501,0.75-0.869c0.21-0.369,0.35-0.815,0.415-1.344c0.065-0.527,0.125-1.278,0.178-2.252h0.672v11.497h-0.633
		c-0.053-1.185-0.158-2.132-0.316-2.844c-0.158-0.711-0.421-1.264-0.79-1.66c-0.369-0.394-0.863-0.657-1.481-0.789
		c-0.619-0.131-1.417-0.197-2.391-0.197h-1.224v12.84h4.504c0.948,0,1.751-0.013,2.41-0.039c0.658-0.027,1.237-0.118,1.738-0.276
		c0.5-0.158,0.941-0.401,1.324-0.731c0.381-0.329,0.758-0.798,1.125-1.402c0.526-0.843,0.937-1.719,1.226-2.629
		c0.29-0.908,0.553-1.837,0.79-2.784H117.524z"/>
	<path fill="#FFFFFF" d="M56.402,5.871c4.733,1.962,8.994,4.834,12.557,8.397c3.563,3.563,6.436,7.823,8.396,12.559
		c1.889,4.556,2.932,9.551,2.932,14.786c0,5.236-1.043,10.232-2.932,14.789c-1.959,4.735-4.833,8.996-8.396,12.558
		s-7.824,6.435-12.557,8.396c-4.559,1.889-9.553,2.93-14.788,2.93s-10.231-1.042-14.789-2.93c-4.733-1.961-8.994-4.833-12.557-8.396
		c-3.562-3.563-6.435-7.823-8.396-12.558c-1.887-4.557-2.931-9.552-2.931-14.789c0-5.234,1.043-10.23,2.931-14.786
		c1.961-4.736,4.833-8.996,8.396-12.559c3.563-3.563,7.824-6.435,12.557-8.397c4.558-1.888,9.554-2.93,14.789-2.93
		S51.843,3.983,56.402,5.871 M57.528,3.149C52.626,1.121,47.253,0,41.614,0S30.6,1.121,25.698,3.149
		c-5.089,2.107-9.672,5.201-13.51,9.039c-3.838,3.838-6.93,8.421-9.038,13.51C1.12,30.599,0,35.975,0,41.612
		c0,5.64,1.12,11.016,3.151,15.916c2.107,5.088,5.199,9.672,9.038,13.509c3.838,3.84,8.421,6.931,13.51,9.038
		c4.901,2.031,10.276,3.15,15.916,3.15s11.013-1.119,15.915-3.15c5.088-2.107,9.672-5.198,13.511-9.038
		c3.838-3.837,6.929-8.421,9.038-13.509c2.028-4.9,3.149-10.276,3.149-15.916c0-5.637-1.121-11.013-3.149-15.914
		c-2.108-5.089-5.2-9.672-9.038-13.51C67.2,8.35,62.617,5.257,57.528,3.149z"/>
	<path fill-rule="evenodd" clip-rule="evenodd" fill="#FFFFFF" d="M20.014,52.501c-1.093-1.96-1.929-4.084-2.458-6.323
		c-0.012-0.041-0.02-0.085-0.02-0.129c0-0.261,0.212-0.472,0.473-0.472h21.777h0.012c0.26,0,0.471,0.211,0.471,0.472v18.418v0.006
		c0,0.041-0.006,0.083-0.018,0.124c-0.065,0.25-0.326,0.399-0.577,0.331c-1.394-0.379-2.73-1.162-3.966-2.28
		c-1.248-1.127-2.395-2.601-3.4-4.345c-0.679-1.177-1.288-2.469-1.815-3.85c-0.482-1.263-0.9-2.609-1.246-4.021h-3.425
		c0.382,1.69,0.858,3.307,1.419,4.825c0.629,1.706,1.363,3.284,2.181,4.704c0.137,0.238,0.292,0.5,0.465,0.774
		c0.158,0.252,0.322,0.506,0.492,0.759h-0.001c0.094,0.141,0.109,0.328,0.022,0.487c-0.124,0.227-0.409,0.311-0.636,0.187
		c-1.036-0.565-2.027-1.205-2.967-1.909c-0.933-0.701-1.815-1.464-2.639-2.285l-0.026-0.024
		C22.526,56.343,21.136,54.508,20.014,52.501 M40.27,16.464v18.412v0.013c0,0.26-0.211,0.471-0.471,0.471H18.01l0,0
		c-0.037,0-0.071-0.004-0.108-0.013c-0.252-0.059-0.41-0.313-0.351-0.565c0.529-2.246,1.367-4.377,2.464-6.344
		c1.122-2.009,2.512-3.843,4.118-5.45c0.827-0.826,1.717-1.598,2.667-2.31c0.93-0.699,1.911-1.332,2.936-1.895
		c0.153-0.098,0.356-0.102,0.518,0.006c0.216,0.145,0.271,0.438,0.126,0.654c-0.17,0.251-0.334,0.506-0.494,0.76
		c-0.171,0.273-0.327,0.534-0.464,0.771c-0.82,1.424-1.554,3.008-2.186,4.718c-0.56,1.521-1.038,3.139-1.418,4.832h3.424
		c0.347-1.417,0.766-2.768,1.248-4.032c0.53-1.386,1.139-2.678,1.818-3.858c1.005-1.745,2.152-3.217,3.4-4.345
		c1.233-1.115,2.566-1.898,3.957-2.277l0.009-0.003c0.04-0.01,0.082-0.016,0.124-0.016C40.059,15.994,40.27,16.204,40.27,16.464z
		 M42.957,38.042V16.47v-0.006c0-0.041,0.006-0.083,0.017-0.124c0.069-0.25,0.329-0.398,0.579-0.332
		c1.393,0.378,2.729,1.162,3.966,2.28c1.248,1.128,2.396,2.601,3.4,4.345c1.333,2.314,2.406,5.088,3.135,8.177
		c0.7,2.965,1.088,6.229,1.088,9.658c0,3.428-0.388,6.69-1.088,9.656c-0.729,3.087-1.802,5.863-3.135,8.177
		c-0.369,0.642-0.75,1.234-1.137,1.776l-0.003,0c-0.184,0.259-0.374,0.511-0.567,0.755h4.067l0.198-0.321
		c0.128-0.213,0.24-0.397,0.329-0.552c1.471-2.554,2.657-5.596,3.469-8.964c0.78-3.248,1.211-6.804,1.211-10.527
		c0-3.724-0.431-7.281-1.211-10.528c-0.812-3.369-1.999-6.41-3.469-8.966c-0.142-0.243-0.298-0.505-0.471-0.783
		c-0.155-0.25-0.321-0.5-0.487-0.749l0,0c-0.095-0.142-0.11-0.33-0.023-0.488c0.124-0.228,0.41-0.311,0.637-0.187
		c1.035,0.565,2.026,1.206,2.965,1.909c0.948,0.711,1.84,1.484,2.667,2.311c2.277,2.277,4.114,5,5.367,8.028
		c1.207,2.914,1.872,6.108,1.872,9.454c0,3.344-0.665,6.539-1.874,9.452c-1.251,3.028-3.088,5.751-5.365,8.028
		c-0.714,0.714-1.482,1.391-2.296,2.025c-0.382,0.298-0.771,0.584-1.172,0.858h5.449l0.039-0.001h5.338
		c0.521-0.478,1.027-0.988,1.512-1.523c0.345-0.378,0.676-0.766,0.994-1.166h-4.575c-0.099,0-0.198-0.031-0.285-0.094
		c-0.207-0.158-0.248-0.452-0.093-0.661c1.813-2.396,3.252-5.091,4.228-7.994c0.938-2.8,1.448-5.803,1.448-8.926
		c0-3.806-0.757-7.431-2.125-10.734c-1.422-3.432-3.507-6.523-6.098-9.113c-2.588-2.588-5.679-4.675-9.11-6.096
		c-3.305-1.369-6.93-2.125-10.735-2.125c-3.804,0-7.43,0.756-10.734,2.125c-3.431,1.421-6.523,3.507-9.112,6.096
		c-2.589,2.59-4.676,5.681-6.097,9.113c-1.368,3.304-2.124,6.929-2.124,10.734c0,3.803,0.756,7.429,2.124,10.734
		c1.421,3.431,3.508,6.521,6.097,9.11l-0.001,0.002c2.589,2.586,5.68,4.673,9.114,6.094c3.304,1.37,6.93,2.125,10.733,2.125
		c0.258,0,0.457-0.001,0.603-0.005c0.177-0.004,0.367-0.01,0.562-0.019l0.054-0.001h17.129c0.563-0.516,1.105-1.062,1.628-1.637
		c0.347-0.38,0.682-0.769,1.002-1.166h-6.793v-0.002c-0.049,0-0.1-0.007-0.148-0.024h-5.303h-6.888h-0.012
		c-0.26,0-0.471-0.21-0.471-0.471v-0.022c-0.014-0.041-0.02-0.086-0.02-0.131V42.89h-3.134h-0.024H17.441l0,0
		c-0.245,0-0.45-0.187-0.469-0.434c-0.025-0.307-0.045-0.635-0.058-0.984v-0.006c-0.015-0.355-0.021-0.688-0.021-0.996
		c0-0.309,0.007-0.643,0.021-0.999c0.012-0.339,0.031-0.662,0.055-0.964c0.008-0.254,0.216-0.459,0.472-0.459h0.566
		c0.024-0.002,0.049-0.006,0.075-0.006h21.716h0.654H42.957z"/>
	<g>
		<g display="none">
			<path display="inline" fill="#FFFFFF" d="M96.358,65.384c-0.187-0.559-0.311-1.243-0.311-3.059c0-1.817,0.124-2.501,0.311-3.061
				c0.513-1.553,1.692-2.375,3.417-2.375c1.708,0,2.889,0.822,3.401,2.375c0.187,0.56,0.311,1.243,0.311,3.061
				c0,1.815-0.124,2.5-0.311,3.059c-0.512,1.554-1.693,2.378-3.401,2.378C98.051,67.762,96.871,66.938,96.358,65.384z
				 M102.322,59.514c-0.389-1.164-1.243-1.785-2.547-1.785c-1.32,0-2.174,0.621-2.563,1.785c-0.139,0.418-0.264,1.103-0.264,2.812
				c0,1.708,0.125,2.392,0.264,2.811c0.389,1.166,1.243,1.786,2.563,1.786c1.305,0,2.158-0.62,2.547-1.786
				c0.139-0.419,0.264-1.103,0.264-2.811C102.586,60.617,102.461,59.932,102.322,59.514z"/>
			<path display="inline" fill="#FFFFFF" d="M109.85,63.972c0,1.987,1.009,2.95,2.687,2.95c1.692,0,2.702-0.963,2.702-2.95v-6.771
				c0-0.093,0.063-0.155,0.155-0.155h0.574c0.094,0,0.156,0.063,0.156,0.155v6.755c0,2.58-1.399,3.807-3.588,3.807
				c-2.174,0-3.572-1.227-3.572-3.807v-6.755c0-0.093,0.061-0.155,0.155-0.155h0.575c0.092,0,0.155,0.063,0.155,0.155V63.972z"/>
			<path display="inline" fill="#FFFFFF" d="M124.382,67.606c-0.094,0-0.156-0.062-0.156-0.155v-9.475
				c0-0.063-0.031-0.092-0.093-0.092h-3.044c-0.093,0-0.155-0.063-0.155-0.155v-0.528c0-0.093,0.062-0.155,0.155-0.155h7.16
				c0.094,0,0.156,0.063,0.156,0.155v0.528c0,0.093-0.063,0.155-0.156,0.155h-3.044c-0.062,0-0.093,0.029-0.093,0.092v9.475
				c0,0.094-0.063,0.155-0.156,0.155H124.382z"/>
			<path display="inline" fill="#FFFFFF" d="M132.872,66.536c-0.063-0.063-0.078-0.157-0.015-0.219l0.372-0.467
				c0.062-0.076,0.156-0.076,0.218-0.014c0.698,0.542,1.801,1.086,3.028,1.086c1.693,0,2.733-0.854,2.733-2.159
				c0-1.039-0.59-1.801-2.531-2.051l-0.481-0.063c-2.066-0.262-3.044-1.255-3.044-2.795c0-1.832,1.305-2.965,3.323-2.965
				c1.165,0,2.283,0.356,3.013,0.885c0.079,0.047,0.094,0.139,0.031,0.218l-0.311,0.479c-0.062,0.079-0.14,0.079-0.217,0.031
				c-0.838-0.511-1.662-0.774-2.563-0.774c-1.506,0-2.392,0.838-2.392,2.064c0,1.073,0.683,1.771,2.485,2.005l0.481,0.062
				c2.144,0.28,3.091,1.273,3.091,2.841c0,1.787-1.273,3.062-3.728,3.062C134.983,67.762,133.602,67.171,132.872,66.536z"/>
			<path display="inline" fill="#FFFFFF" d="M145.556,65.384c-0.188-0.559-0.311-1.243-0.311-3.059c0-1.817,0.124-2.501,0.311-3.061
				c0.512-1.553,1.692-2.375,3.417-2.375c1.708,0,2.888,0.822,3.401,2.375c0.186,0.56,0.311,1.243,0.311,3.061
				c0,1.815-0.125,2.5-0.311,3.059c-0.513,1.554-1.693,2.378-3.401,2.378C147.248,67.762,146.068,66.938,145.556,65.384z
				 M151.52,59.514c-0.39-1.164-1.243-1.785-2.548-1.785c-1.321,0-2.174,0.621-2.563,1.785c-0.139,0.418-0.264,1.103-0.264,2.812
				c0,1.708,0.125,2.392,0.264,2.811c0.389,1.166,1.242,1.786,2.563,1.786c1.305,0,2.158-0.62,2.548-1.786
				c0.139-0.419,0.264-1.103,0.264-2.811C151.784,60.617,151.659,59.932,151.52,59.514z"/>
			<path display="inline" fill="#FFFFFF" d="M159.047,63.972c0,1.987,1.009,2.95,2.687,2.95c1.693,0,2.703-0.963,2.703-2.95v-6.771
				c0-0.093,0.062-0.155,0.155-0.155h0.574c0.094,0,0.156,0.063,0.156,0.155v6.755c0,2.58-1.398,3.807-3.588,3.807
				c-2.174,0-3.571-1.227-3.571-3.807v-6.755c0-0.093,0.062-0.155,0.155-0.155h0.575c0.093,0,0.155,0.063,0.155,0.155V63.972z"/>
			<path display="inline" fill="#FFFFFF" d="M177.509,67.606c-0.094,0-0.14-0.031-0.187-0.14l-2.221-4.583h-0.156h-2.718
				c-0.063,0-0.092,0.03-0.092,0.095v4.473c0,0.094-0.063,0.155-0.157,0.155h-0.573c-0.093,0-0.156-0.062-0.156-0.155v-10.25
				c0-0.093,0.063-0.155,0.156-0.155h3.54c1.988,0,3.215,1.118,3.215,2.918c0,1.459-0.807,2.471-2.158,2.798l2.299,4.674
				c0.063,0.095,0.016,0.171-0.078,0.171H177.509z M177.276,59.963c0-1.318-0.84-2.079-2.346-2.079h-2.702
				c-0.063,0-0.092,0.029-0.092,0.092v3.977c0,0.063,0.03,0.093,0.092,0.093h2.702C176.437,62.045,177.276,61.301,177.276,59.963z"
				/>
			<path display="inline" fill="#FFFFFF" d="M183.453,62.326c0-1.849,0.11-2.547,0.28-3.075c0.529-1.584,1.677-2.36,3.338-2.36
				c1.446,0,2.58,0.667,3.186,1.957c0.03,0.076,0.03,0.155-0.047,0.201l-0.513,0.248c-0.079,0.048-0.156,0.017-0.202-0.063
				c-0.481-0.9-1.227-1.505-2.424-1.505c-1.288,0-2.081,0.604-2.484,1.755c-0.14,0.417-0.233,1.07-0.233,2.842
				c0,1.771,0.093,2.424,0.233,2.841c0.404,1.15,1.197,1.756,2.484,1.756c1.197,0,1.943-0.605,2.424-1.506
				c0.045-0.077,0.123-0.108,0.202-0.063l0.513,0.25c0.077,0.045,0.077,0.122,0.047,0.201c-0.606,1.29-1.739,1.957-3.186,1.957
				c-1.661,0-2.81-0.777-3.338-2.363C183.563,64.871,183.453,64.173,183.453,62.326z"/>
			<path display="inline" fill="#FFFFFF" d="M195.654,57.201c0-0.093,0.062-0.155,0.156-0.155h6.04c0.094,0,0.156,0.063,0.156,0.155
				v0.528c0,0.093-0.063,0.155-0.156,0.155h-5.219c-0.062,0-0.092,0.029-0.092,0.092v3.76c0,0.063,0.03,0.094,0.092,0.094h4.489
				c0.095,0,0.156,0.06,0.156,0.153v0.528c0,0.094-0.062,0.156-0.156,0.156h-4.489c-0.062,0-0.092,0.031-0.092,0.094v3.913
				c0,0.063,0.03,0.093,0.092,0.093h5.219c0.094,0,0.156,0.063,0.156,0.155v0.528c0,0.094-0.063,0.155-0.156,0.155h-6.04
				c-0.095,0-0.156-0.062-0.156-0.155V57.201z"/>
			<path display="inline" fill="#FFFFFF" d="M227.755,62.326c0-1.849,0.108-2.547,0.279-3.075c0.527-1.584,1.678-2.36,3.338-2.36
				c1.445,0,2.578,0.667,3.185,1.957c0.031,0.076,0.031,0.155-0.046,0.201l-0.514,0.248c-0.078,0.048-0.155,0.017-0.201-0.063
				c-0.48-0.9-1.227-1.505-2.424-1.505c-1.288,0-2.08,0.604-2.484,1.755c-0.139,0.417-0.232,1.07-0.232,2.842
				c0,1.771,0.094,2.424,0.232,2.841c0.404,1.15,1.196,1.756,2.484,1.756c1.197,0,1.943-0.605,2.424-1.506
				c0.046-0.077,0.123-0.108,0.201-0.063l0.514,0.25c0.077,0.045,0.077,0.122,0.046,0.201c-0.606,1.29-1.739,1.957-3.185,1.957
				c-1.66,0-2.811-0.777-3.338-2.363C227.863,64.871,227.755,64.173,227.755,62.326z"/>
			<path display="inline" fill="#FFFFFF" d="M239.815,65.384c-0.187-0.559-0.311-1.243-0.311-3.059c0-1.817,0.124-2.501,0.311-3.061
				c0.514-1.553,1.693-2.375,3.417-2.375c1.709,0,2.889,0.822,3.401,2.375c0.187,0.56,0.311,1.243,0.311,3.061
				c0,1.815-0.124,2.5-0.311,3.059c-0.513,1.554-1.692,2.378-3.401,2.378C241.509,67.762,240.329,66.938,239.815,65.384z
				 M245.78,59.514c-0.389-1.164-1.242-1.785-2.548-1.785c-1.319,0-2.173,0.621-2.563,1.785c-0.14,0.418-0.264,1.103-0.264,2.812
				c0,1.708,0.124,2.392,0.264,2.811c0.39,1.166,1.243,1.786,2.563,1.786c1.306,0,2.159-0.62,2.548-1.786
				c0.14-0.419,0.264-1.103,0.264-2.811C246.044,60.617,245.92,59.932,245.78,59.514z"/>
			<path display="inline" fill="#FFFFFF" d="M252.531,57.201c0-0.093,0.063-0.155,0.154-0.155h0.575c0.109,0,0.202,0.03,0.264,0.155
				l5.266,8.682h0.048v-8.682c0-0.093,0.062-0.155,0.154-0.155h0.575c0.092,0,0.154,0.063,0.154,0.155v10.25
				c0,0.094-0.063,0.155-0.154,0.155h-0.606c-0.092,0-0.186-0.031-0.265-0.155l-5.218-8.696h-0.062v8.696
				c0,0.094-0.062,0.155-0.156,0.155h-0.575c-0.092,0-0.154-0.062-0.154-0.155V57.201z"/>
			<path display="inline" fill="#FFFFFF" d="M265.759,57.201c0-0.093,0.064-0.155,0.157-0.155h0.573c0.109,0,0.201,0.03,0.266,0.155
				l5.264,8.682h0.047v-8.682c0-0.093,0.061-0.155,0.156-0.155h0.574c0.092,0,0.154,0.063,0.154,0.155v10.25
				c0,0.094-0.063,0.155-0.154,0.155h-0.605c-0.094,0-0.188-0.031-0.266-0.155l-5.219-8.696h-0.061v8.696
				c0,0.094-0.063,0.155-0.156,0.155h-0.573c-0.093,0-0.157-0.062-0.157-0.155V57.201z"/>
			<path display="inline" fill="#FFFFFF" d="M278.987,57.201c0-0.093,0.062-0.155,0.155-0.155h6.042
				c0.094,0,0.156,0.063,0.156,0.155v0.528c0,0.093-0.063,0.155-0.156,0.155h-5.219c-0.063,0-0.093,0.029-0.093,0.092v3.76
				c0,0.063,0.03,0.094,0.093,0.094h4.488c0.094,0,0.156,0.06,0.156,0.153v0.528c0,0.094-0.063,0.156-0.156,0.156h-4.488
				c-0.063,0-0.093,0.031-0.093,0.094v3.913c0,0.063,0.03,0.093,0.093,0.093h5.219c0.094,0,0.156,0.063,0.156,0.155v0.528
				c0,0.094-0.063,0.155-0.156,0.155h-6.042c-0.094,0-0.155-0.062-0.155-0.155V57.201z"/>
			<path display="inline" fill="#FFFFFF" d="M290.286,62.326c0-1.849,0.111-2.547,0.282-3.075c0.528-1.584,1.678-2.36,3.339-2.36
				c1.443,0,2.579,0.667,3.184,1.957c0.031,0.076,0.031,0.155-0.048,0.201l-0.511,0.248c-0.077,0.048-0.156,0.017-0.203-0.063
				c-0.48-0.9-1.226-1.505-2.422-1.505c-1.289,0-2.082,0.604-2.485,1.755c-0.142,0.417-0.231,1.07-0.231,2.842
				c0,1.771,0.09,2.424,0.231,2.841c0.403,1.15,1.196,1.756,2.485,1.756c1.196,0,1.941-0.605,2.422-1.506
				c0.047-0.077,0.126-0.108,0.203-0.063l0.511,0.25c0.079,0.045,0.079,0.122,0.048,0.201c-0.604,1.29-1.74,1.957-3.184,1.957
				c-1.661,0-2.811-0.777-3.339-2.363C290.397,64.871,290.286,64.173,290.286,62.326z"/>
			<path display="inline" fill="#FFFFFF" d="M304.54,67.606c-0.092,0-0.153-0.062-0.153-0.155v-9.475
				c0-0.063-0.032-0.092-0.094-0.092h-3.046c-0.093,0-0.155-0.063-0.155-0.155v-0.528c0-0.093,0.063-0.155,0.155-0.155h7.16
				c0.094,0,0.156,0.063,0.156,0.155v0.528c0,0.093-0.063,0.155-0.156,0.155h-3.043c-0.063,0-0.094,0.029-0.094,0.092v9.475
				c0,0.094-0.061,0.155-0.154,0.155H304.54z"/>
			<path display="inline" fill="#FFFFFF" d="M327.544,67.606c-0.096,0-0.141-0.045-0.172-0.155l-2.471-8.651h-0.03l-2.485,8.651
				c-0.031,0.11-0.077,0.155-0.17,0.155h-0.498c-0.093,0-0.154-0.062-0.186-0.155l-2.501-10.236
				c-0.032-0.106,0.017-0.169,0.125-0.169h0.561c0.122,0,0.184,0.046,0.201,0.155l2.081,8.697h0.029l2.438-8.697
				c0.032-0.109,0.078-0.155,0.188-0.155h0.466c0.107,0,0.153,0.046,0.185,0.155l2.471,8.697h0.031l2.033-8.697
				c0.031-0.125,0.078-0.155,0.201-0.155h0.561c0.107,0,0.156,0.063,0.123,0.169l-2.498,10.236c-0.018,0.094-0.08,0.155-0.172,0.155
				H327.544z"/>
			<path display="inline" fill="#FFFFFF" d="M335.804,57.201c0-0.093,0.063-0.155,0.154-0.155h0.574
				c0.094,0,0.156,0.063,0.156,0.155v10.25c0,0.094-0.063,0.155-0.156,0.155h-0.574c-0.092,0-0.154-0.062-0.154-0.155V57.201z"/>
			<path display="inline" fill="#FFFFFF" d="M345.048,67.606c-0.092,0-0.154-0.062-0.154-0.155v-9.475
				c0-0.063-0.031-0.092-0.094-0.092h-3.043c-0.094,0-0.156-0.063-0.156-0.155v-0.528c0-0.093,0.063-0.155,0.156-0.155h7.158
				c0.096,0,0.158,0.063,0.158,0.155v0.528c0,0.093-0.063,0.155-0.158,0.155h-3.045c-0.061,0-0.092,0.029-0.092,0.092v9.475
				c0,0.094-0.061,0.155-0.154,0.155H345.048z"/>
			<path display="inline" fill="#FFFFFF" d="M353.991,57.201c0-0.093,0.063-0.155,0.154-0.155h0.574
				c0.094,0,0.156,0.063,0.156,0.155v4.535c0,0.063,0.031,0.094,0.092,0.094h5.219c0.063,0,0.094-0.031,0.094-0.094v-4.535
				c0-0.093,0.063-0.155,0.154-0.155h0.576c0.094,0,0.156,0.063,0.156,0.155v10.25c0,0.094-0.063,0.155-0.156,0.155h-0.576
				c-0.092,0-0.154-0.062-0.154-0.155v-4.689c0-0.063-0.031-0.094-0.094-0.094h-5.219c-0.061,0-0.092,0.031-0.092,0.094v4.689
				c0,0.094-0.063,0.155-0.156,0.155h-0.574c-0.092,0-0.154-0.062-0.154-0.155V57.201z"/>
			<path display="inline" fill="#FFFFFF" d="M373.683,62.326c0-1.849,0.111-2.547,0.281-3.075c0.527-1.584,1.678-2.36,3.34-2.36
				c1.443,0,2.578,0.667,3.182,1.957c0.033,0.076,0.033,0.155-0.047,0.201l-0.512,0.248c-0.076,0.048-0.156,0.017-0.201-0.063
				c-0.482-0.9-1.227-1.505-2.422-1.505c-1.289,0-2.082,0.604-2.486,1.755c-0.141,0.417-0.232,1.07-0.232,2.842
				c0,1.771,0.092,2.424,0.232,2.841c0.404,1.15,1.197,1.756,2.486,1.756c1.195,0,1.939-0.605,2.422-1.506
				c0.045-0.077,0.125-0.108,0.201-0.063l0.512,0.25c0.08,0.045,0.08,0.122,0.047,0.201c-0.604,1.29-1.738,1.957-3.182,1.957
				c-1.662,0-2.813-0.777-3.34-2.363C373.794,64.871,373.683,64.173,373.683,62.326z"/>
			<path display="inline" fill="#FFFFFF" d="M385.745,65.384c-0.186-0.559-0.311-1.243-0.311-3.059c0-1.817,0.125-2.501,0.311-3.061
				c0.512-1.553,1.691-2.375,3.416-2.375c1.709,0,2.891,0.822,3.402,2.375c0.186,0.56,0.311,1.243,0.311,3.061
				c0,1.815-0.125,2.5-0.311,3.059c-0.512,1.554-1.693,2.378-3.402,2.378C387.437,67.762,386.257,66.938,385.745,65.384z
				 M391.71,59.514c-0.391-1.164-1.244-1.785-2.549-1.785c-1.32,0-2.174,0.621-2.561,1.785c-0.141,0.418-0.264,1.103-0.264,2.812
				c0,1.708,0.123,2.392,0.264,2.811c0.387,1.166,1.24,1.786,2.561,1.786c1.305,0,2.158-0.62,2.549-1.786
				c0.139-0.419,0.264-1.103,0.264-2.811C391.974,60.617,391.849,59.932,391.71,59.514z"/>
			<path display="inline" fill="#FFFFFF" d="M398.46,57.201c0-0.093,0.063-0.155,0.156-0.155h0.572c0.109,0,0.203,0.03,0.266,0.155
				l5.266,8.682h0.045v-8.682c0-0.093,0.063-0.155,0.156-0.155h0.572c0.094,0,0.156,0.063,0.156,0.155v10.25
				c0,0.094-0.063,0.155-0.156,0.155h-0.604c-0.094,0-0.188-0.031-0.266-0.155l-5.217-8.696h-0.063v8.696
				c0,0.094-0.061,0.155-0.156,0.155h-0.572c-0.094,0-0.156-0.062-0.156-0.155V57.201z"/>
			<path display="inline" fill="#FFFFFF" d="M411.687,57.201c0-0.093,0.063-0.155,0.156-0.155h6.041
				c0.094,0,0.154,0.063,0.154,0.155v0.528c0,0.093-0.061,0.155-0.154,0.155h-5.217c-0.063,0-0.096,0.029-0.096,0.092v3.867
				c0,0.063,0.033,0.094,0.096,0.094h4.486c0.094,0,0.156,0.063,0.156,0.156v0.529c0,0.09-0.063,0.152-0.156,0.152h-4.486
				c-0.063,0-0.096,0.031-0.096,0.094v4.582c0,0.094-0.063,0.155-0.154,0.155h-0.574c-0.094,0-0.156-0.062-0.156-0.155V57.201z"/>
			<path display="inline" fill="#FFFFFF" d="M423.36,57.201c0-0.093,0.063-0.155,0.156-0.155h0.574c0.094,0,0.156,0.063,0.156,0.155
				v10.25c0,0.094-0.063,0.155-0.156,0.155h-0.574c-0.094,0-0.156-0.062-0.156-0.155V57.201z"/>
			<path display="inline" fill="#FFFFFF" d="M430.276,57.201c0-0.093,0.063-0.155,0.158-0.155h3.307
				c1.756,0,2.904,0.697,3.369,2.143c0.201,0.622,0.297,1.213,0.297,3.138c0,1.926-0.096,2.517-0.297,3.137
				c-0.465,1.444-1.613,2.144-3.369,2.144h-3.307c-0.096,0-0.158-0.062-0.158-0.155V57.201z M431.257,66.767h2.359
				c1.367,0,2.268-0.481,2.643-1.601c0.17-0.511,0.246-1.055,0.246-2.841s-0.076-2.33-0.246-2.842c-0.375-1.119-1.275-1.6-2.643-1.6
				h-2.359c-0.063,0-0.094,0.029-0.094,0.092v8.698C431.163,66.737,431.194,66.767,431.257,66.767z"/>
			<path display="inline" fill="#FFFFFF" d="M443.024,57.201c0-0.093,0.063-0.155,0.156-0.155h6.041
				c0.094,0,0.156,0.063,0.156,0.155v0.528c0,0.093-0.063,0.155-0.156,0.155h-5.217c-0.063,0-0.094,0.029-0.094,0.092v3.76
				c0,0.063,0.031,0.094,0.094,0.094h4.486c0.094,0,0.156,0.06,0.156,0.153v0.528c0,0.094-0.063,0.156-0.156,0.156h-4.486
				c-0.063,0-0.094,0.031-0.094,0.094v3.913c0,0.063,0.031,0.093,0.094,0.093h5.217c0.094,0,0.156,0.063,0.156,0.155v0.528
				c0,0.094-0.063,0.155-0.156,0.155h-6.041c-0.094,0-0.156-0.062-0.156-0.155V57.201z"/>
			<path display="inline" fill="#FFFFFF" d="M454.776,57.201c0-0.093,0.063-0.155,0.156-0.155h0.572c0.109,0,0.203,0.03,0.266,0.155
				l5.266,8.682h0.045v-8.682c0-0.093,0.063-0.155,0.156-0.155h0.572c0.094,0,0.156,0.063,0.156,0.155v10.25
				c0,0.094-0.063,0.155-0.156,0.155h-0.604c-0.094,0-0.188-0.031-0.266-0.155l-5.217-8.696h-0.061v8.696
				c0,0.094-0.064,0.155-0.158,0.155h-0.572c-0.094,0-0.156-0.062-0.156-0.155V57.201z"/>
			<path display="inline" fill="#FFFFFF" d="M467.552,62.326c0-1.849,0.111-2.547,0.281-3.075c0.527-1.584,1.678-2.36,3.34-2.36
				c1.443,0,2.576,0.667,3.184,1.957c0.031,0.076,0.031,0.155-0.047,0.201l-0.514,0.248c-0.076,0.048-0.156,0.017-0.201-0.063
				c-0.482-0.9-1.227-1.505-2.422-1.505c-1.289,0-2.082,0.604-2.486,1.755c-0.141,0.417-0.232,1.07-0.232,2.842
				c0,1.771,0.092,2.424,0.232,2.841c0.404,1.15,1.197,1.756,2.486,1.756c1.195,0,1.939-0.605,2.422-1.506
				c0.045-0.077,0.125-0.108,0.201-0.063l0.514,0.25c0.078,0.045,0.078,0.122,0.047,0.201c-0.607,1.29-1.74,1.957-3.184,1.957
				c-1.662,0-2.813-0.777-3.34-2.363C467.663,64.871,467.552,64.173,467.552,62.326z"/>
			<path display="inline" fill="#FFFFFF" d="M479.755,57.201c0-0.093,0.063-0.155,0.156-0.155h6.039
				c0.094,0,0.156,0.063,0.156,0.155v0.528c0,0.093-0.063,0.155-0.156,0.155h-5.217c-0.063,0-0.094,0.029-0.094,0.092v3.76
				c0,0.063,0.031,0.094,0.094,0.094h4.488c0.094,0,0.156,0.06,0.156,0.153v0.528c0,0.094-0.063,0.156-0.156,0.156h-4.488
				c-0.063,0-0.094,0.031-0.094,0.094v3.913c0,0.063,0.031,0.093,0.094,0.093h5.217c0.094,0,0.156,0.063,0.156,0.155v0.528
				c0,0.094-0.063,0.155-0.156,0.155h-6.039c-0.094,0-0.156-0.062-0.156-0.155V57.201z"/>
		</g>
		<circle fill="#FFFFFF" cx="214.394" cy="63.126" r="2.129"/>
	</g>
</g>
<g id="Layer_3">
	<g>
		<path fill="#FFFFFF" d="M232.355,66.077c0,0.733-0.067,1.293-0.2,1.68c-0.16,0.454-0.417,0.827-0.77,1.12
			c-0.354,0.293-0.757,0.49-1.21,0.59c-0.453,0.1-0.783,0.16-0.99,0.18c-0.207,0.02-0.417,0.03-0.63,0.03
			c-0.48,0-0.927-0.047-1.34-0.14c-1.227-0.24-2.02-0.8-2.38-1.68c-0.133-0.347-0.2-0.84-0.2-1.48v-7.68
			c0-0.173,0.013-0.42,0.04-0.74c0.04-0.947,0.373-1.673,1-2.18c0.693-0.546,1.667-0.82,2.92-0.82c1.12,0,2,0.213,2.64,0.64
			c0.413,0.28,0.707,0.626,0.88,1.04c0.16,0.333,0.24,0.867,0.24,1.6v2.16h-2.56v-1.78c0-0.587-0.087-1.01-0.26-1.27
			c-0.173-0.26-0.533-0.39-1.08-0.39c-0.467,0-0.784,0.13-0.95,0.39c-0.167,0.26-0.25,0.643-0.25,1.15v7.56
			c0,0.52,0.09,0.917,0.27,1.19s0.517,0.41,1.01,0.41c0.533,0,0.877-0.133,1.03-0.4c0.153-0.267,0.23-0.713,0.23-1.34v-1.84h2.56
			V66.077z"/>
		<path fill="#FFFFFF" d="M244.755,66.356c0,1.053-0.273,1.847-0.82,2.38c-0.68,0.627-1.7,0.94-3.06,0.94
			c-1.28,0-2.26-0.273-2.94-0.82c-0.347-0.28-0.58-0.573-0.7-0.88c-0.2-0.413-0.3-0.953-0.3-1.62v-7.92
			c0-1.187,0.293-2.04,0.88-2.56c0.693-0.613,1.72-0.92,3.08-0.92c0.947,0,1.714,0.16,2.3,0.48c0.587,0.32,1,0.713,1.24,1.18
			c0.213,0.44,0.32,1.066,0.32,1.88V66.356z M242.135,65.977v-7.3c0-0.56-0.054-0.94-0.16-1.14c-0.187-0.413-0.547-0.62-1.08-0.62
			c-0.333,0-0.613,0.087-0.84,0.26c-0.08,0.054-0.15,0.114-0.21,0.18c-0.06,0.067-0.107,0.14-0.14,0.22
			c-0.033,0.08-0.063,0.15-0.09,0.21c-0.027,0.06-0.043,0.143-0.05,0.25s-0.01,0.183-0.01,0.23s0,0.137,0,0.27s0,0.213,0,0.24v7.14
			c0,0.64,0.08,1.073,0.24,1.3c0.2,0.28,0.553,0.42,1.06,0.42c0.32,0,0.593-0.08,0.82-0.24c0.146-0.106,0.256-0.25,0.33-0.43
			c0.073-0.18,0.113-0.326,0.12-0.44C242.131,66.414,242.135,66.23,242.135,65.977z"/>
		<path fill="#FFFFFF" d="M257.774,69.376h-3.279l-2.5-10.58l0.219,10.58h-2.439v-14.12h3.34l2.54,10.36l-0.26-10.36h2.38V69.376z"
			/>
		<path fill="#FFFFFF" d="M270.915,69.376h-3.28l-2.5-10.58l0.22,10.58h-2.439v-14.12h3.34l2.539,10.36l-0.26-10.36h2.381V69.376z"
			/>
		<path fill="#FFFFFF" d="M283.095,69.376h-7.04v-14.12h6.84v2.14h-4.239v3.32h4v2.14h-4v4.34h4.439V69.376z"/>
		<path fill="#FFFFFF" d="M295.134,66.077c0,0.733-0.066,1.293-0.199,1.68c-0.16,0.454-0.418,0.827-0.771,1.12
			c-0.354,0.293-0.757,0.49-1.21,0.59c-0.453,0.1-0.783,0.16-0.99,0.18s-0.416,0.03-0.63,0.03c-0.479,0-0.927-0.047-1.34-0.14
			c-1.228-0.24-2.021-0.8-2.38-1.68c-0.133-0.347-0.2-0.84-0.2-1.48v-7.68c0-0.173,0.013-0.42,0.04-0.74
			c0.04-0.947,0.373-1.673,1-2.18c0.693-0.546,1.666-0.82,2.92-0.82c1.12,0,2,0.213,2.641,0.64c0.412,0.28,0.706,0.626,0.879,1.04
			c0.16,0.333,0.24,0.867,0.24,1.6v2.16h-2.56v-1.78c0-0.587-0.087-1.01-0.261-1.27c-0.173-0.26-0.533-0.39-1.079-0.39
			c-0.468,0-0.784,0.13-0.95,0.39c-0.167,0.26-0.25,0.643-0.25,1.15v7.56c0,0.52,0.09,0.917,0.27,1.19
			c0.181,0.273,0.518,0.41,1.01,0.41c0.533,0,0.877-0.133,1.031-0.4c0.152-0.267,0.229-0.713,0.229-1.34v-1.84h2.56V66.077z"/>
		<path fill="#FFFFFF" d="M306.714,57.296h-2.62v12.08h-2.62v-12.08h-2.6v-2.04h7.84V57.296z"/>
		<path fill="#FFFFFF" d="M331.554,55.256l-2.72,14.12h-2.74l-1.36-9.64l-1.52,9.64h-2.78l-2.579-14.12h2.699l1.42,10.64l1.52-10.64
			h2.461l1.479,10.64l1.479-10.64H331.554z"/>
		<path fill="#FFFFFF" d="M338.493,69.376h-2.58v-14.12h2.58V69.376z"/>
		<path fill="#FFFFFF" d="M350.513,57.296h-2.619v12.08h-2.62v-12.08h-2.601v-2.04h7.84V57.296z"/>
		<path fill="#FFFFFF" d="M362.273,69.376h-2.6v-6.46h-2.381v6.46h-2.6v-14.12h2.6v5.54h2.381v-5.54h2.6V69.376z"/>
		<path fill="#FFFFFF" d="M382.732,66.077c0,0.733-0.066,1.293-0.199,1.68c-0.16,0.454-0.417,0.827-0.771,1.12
			c-0.354,0.293-0.757,0.49-1.21,0.59c-0.453,0.1-0.783,0.16-0.99,0.18s-0.417,0.03-0.63,0.03c-0.479,0-0.927-0.047-1.34-0.14
			c-1.227-0.24-2.02-0.8-2.38-1.68c-0.134-0.347-0.2-0.84-0.2-1.48v-7.68c0-0.173,0.014-0.42,0.04-0.74
			c0.04-0.947,0.373-1.673,1-2.18c0.693-0.546,1.667-0.82,2.92-0.82c1.12,0,2,0.213,2.641,0.64c0.413,0.28,0.706,0.626,0.88,1.04
			c0.159,0.333,0.239,0.867,0.239,1.6v2.16h-2.56v-1.78c0-0.587-0.087-1.01-0.26-1.27c-0.174-0.26-0.534-0.39-1.08-0.39
			c-0.467,0-0.783,0.13-0.95,0.39c-0.167,0.26-0.25,0.643-0.25,1.15v7.56c0,0.52,0.09,0.917,0.27,1.19
			c0.181,0.273,0.517,0.41,1.011,0.41c0.533,0,0.876-0.133,1.029-0.4c0.153-0.267,0.23-0.713,0.23-1.34v-1.84h2.56V66.077z"/>
		<path fill="#FFFFFF" d="M395.133,66.356c0,1.053-0.273,1.847-0.82,2.38c-0.68,0.627-1.7,0.94-3.06,0.94
			c-1.28,0-2.261-0.273-2.94-0.82c-0.347-0.28-0.58-0.573-0.7-0.88c-0.199-0.413-0.3-0.953-0.3-1.62v-7.92
			c0-1.187,0.293-2.04,0.88-2.56c0.693-0.613,1.721-0.92,3.08-0.92c0.946,0,1.713,0.16,2.3,0.48s1,0.713,1.24,1.18
			c0.213,0.44,0.32,1.066,0.32,1.88V66.356z M392.513,65.977v-7.3c0-0.56-0.054-0.94-0.16-1.14c-0.187-0.413-0.547-0.62-1.08-0.62
			c-0.333,0-0.613,0.087-0.84,0.26c-0.08,0.054-0.15,0.114-0.21,0.18c-0.06,0.067-0.106,0.14-0.14,0.22
			c-0.034,0.08-0.063,0.15-0.091,0.21c-0.026,0.06-0.043,0.143-0.05,0.25s-0.01,0.183-0.01,0.23s0,0.137,0,0.27s0,0.213,0,0.24v7.14
			c0,0.64,0.08,1.073,0.24,1.3c0.2,0.28,0.553,0.42,1.06,0.42c0.32,0,0.594-0.08,0.82-0.24c0.146-0.106,0.257-0.25,0.33-0.43
			c0.073-0.18,0.113-0.326,0.12-0.44C392.509,66.414,392.513,66.23,392.513,65.977z"/>
		<path fill="#FFFFFF" d="M408.152,69.376h-3.28l-2.5-10.58l0.221,10.58h-2.44v-14.12h3.34l2.54,10.36l-0.26-10.36h2.38V69.376z"/>
		<path fill="#FFFFFF" d="M420.213,57.437h-4.3v3.54h4.04v2.1h-4.04v6.3h-2.62v-14.12h6.92V57.437z"/>
		<path fill="#FFFFFF" d="M426.933,69.376h-2.58v-14.12h2.58V69.376z"/>
		<path fill="#FFFFFF" d="M439.832,65.577c0,0.347-0.007,0.606-0.02,0.78c-0.067,1.253-0.507,2.113-1.32,2.58
			c-0.507,0.293-1.253,0.44-2.24,0.44h-4.18v-14.12h4.78c0.732,0,1.38,0.233,1.939,0.7c0.44,0.374,0.724,0.793,0.851,1.26
			c0.126,0.467,0.189,1.054,0.189,1.76V65.577z M437.232,65.796v-7.04c0-0.6-0.12-1-0.36-1.2c-0.2-0.16-0.593-0.24-1.18-0.24h-1.021
			v10h0.92c0.334,0,0.58-0.013,0.74-0.04c0.267-0.053,0.471-0.16,0.61-0.32s0.223-0.323,0.25-0.49
			C437.219,66.3,437.232,66.077,437.232,65.796z"/>
		<path fill="#FFFFFF" d="M451.832,69.376h-7.04v-14.12h6.84v2.14h-4.24v3.32h4v2.14h-4v4.34h4.44V69.376z"/>
		<path fill="#FFFFFF" d="M464.271,69.376h-3.28l-2.5-10.58l0.221,10.58h-2.44v-14.12h3.34l2.54,10.36l-0.26-10.36h2.38V69.376z"/>
		<path fill="#FFFFFF" d="M477.012,66.077c0,0.733-0.066,1.293-0.199,1.68c-0.16,0.454-0.417,0.827-0.771,1.12
			c-0.354,0.293-0.757,0.49-1.21,0.59c-0.453,0.1-0.783,0.16-0.99,0.18s-0.417,0.03-0.63,0.03c-0.479,0-0.927-0.047-1.34-0.14
			c-1.227-0.24-2.02-0.8-2.38-1.68c-0.134-0.347-0.2-0.84-0.2-1.48v-7.68c0-0.173,0.014-0.42,0.04-0.74
			c0.04-0.947,0.373-1.673,1-2.18c0.693-0.546,1.667-0.82,2.92-0.82c1.12,0,2,0.213,2.641,0.64c0.413,0.28,0.706,0.626,0.88,1.04
			c0.159,0.333,0.239,0.867,0.239,1.6v2.16h-2.56v-1.78c0-0.587-0.087-1.01-0.26-1.27c-0.174-0.26-0.534-0.39-1.08-0.39
			c-0.467,0-0.783,0.13-0.95,0.39c-0.167,0.26-0.25,0.643-0.25,1.15v7.56c0,0.52,0.09,0.917,0.27,1.19
			c0.181,0.273,0.517,0.41,1.011,0.41c0.533,0,0.876-0.133,1.029-0.4c0.153-0.267,0.23-0.713,0.23-1.34v-1.84h2.56V66.077z"/>
		<path fill="#FFFFFF" d="M488.752,69.376h-7.04v-14.12h6.84v2.14h-4.24v3.32h4v2.14h-4v4.34h4.44V69.376z"/>
	</g>
</g>
<g id="Layer_2">
	<g>
		<path fill="#FFFFFF" d="M103.99,66.356c0,1.053-0.273,1.847-0.82,2.38c-0.68,0.627-1.7,0.94-3.06,0.94
			c-1.28,0-2.26-0.273-2.94-0.82c-0.347-0.28-0.58-0.573-0.7-0.88c-0.2-0.413-0.3-0.953-0.3-1.62v-7.92
			c0-1.187,0.293-2.04,0.88-2.56c0.693-0.613,1.72-0.92,3.08-0.92c0.947,0,1.713,0.16,2.3,0.48c0.586,0.32,1,0.713,1.24,1.18
			c0.213,0.44,0.32,1.066,0.32,1.88V66.356z M101.37,65.977v-7.3c0-0.56-0.054-0.94-0.16-1.14c-0.187-0.413-0.547-0.62-1.08-0.62
			c-0.333,0-0.613,0.087-0.84,0.26c-0.08,0.054-0.15,0.114-0.21,0.18c-0.06,0.067-0.107,0.14-0.14,0.22
			c-0.033,0.08-0.063,0.15-0.09,0.21c-0.027,0.06-0.043,0.143-0.05,0.25s-0.01,0.183-0.01,0.23s0,0.137,0,0.27s0,0.213,0,0.24v7.14
			c0,0.64,0.08,1.073,0.24,1.3c0.2,0.28,0.553,0.42,1.06,0.42c0.32,0,0.593-0.08,0.82-0.24c0.146-0.106,0.256-0.25,0.33-0.43
			c0.073-0.18,0.113-0.326,0.12-0.44C101.367,66.414,101.37,66.23,101.37,65.977z"/>
		<path fill="#FFFFFF" d="M116.63,66.196c0,0.96-0.213,1.713-0.64,2.26c-0.627,0.813-1.713,1.22-3.26,1.22
			c-1.28,0-2.24-0.34-2.88-1.02c-0.253-0.253-0.453-0.573-0.6-0.96c-0.174-0.426-0.26-0.946-0.26-1.56v-10.88h2.6v10.5
			c0,0.507,0.046,0.874,0.14,1.1c0.173,0.4,0.533,0.6,1.08,0.6c0.307,0,0.56-0.073,0.76-0.22c0.066-0.04,0.123-0.086,0.17-0.14
			c0.046-0.053,0.083-0.107,0.11-0.16s0.053-0.12,0.08-0.2s0.043-0.143,0.05-0.19c0.006-0.046,0.013-0.117,0.02-0.21
			c0.006-0.093,0.01-0.16,0.01-0.2c0-0.04,0-0.11,0-0.21c0-0.1,0-0.163,0-0.19v-10.48h2.62V66.196z"/>
		<path fill="#FFFFFF" d="M128.609,57.296h-2.62v12.08h-2.62v-12.08h-2.6v-2.04h7.84V57.296z"/>
		<path fill="#FFFFFF" d="M140.27,65.437c0,1.027-0.047,1.72-0.14,2.08c-0.4,1.44-1.62,2.16-3.66,2.16c-1.253,0-2.22-0.267-2.9-0.8
			c-0.32-0.24-0.567-0.56-0.74-0.96c-0.187-0.467-0.28-0.953-0.28-1.46v-2.06h2.58v1.64c0,0.027,0,0.06,0,0.1
			c0,0.694,0.153,1.14,0.46,1.34c0.213,0.133,0.48,0.2,0.8,0.2c0.4,0,0.7-0.086,0.9-0.26c0.173-0.133,0.28-0.333,0.32-0.6
			c0.04-0.267,0.06-0.693,0.06-1.28s-0.093-1.02-0.28-1.3c-0.08-0.12-0.28-0.307-0.6-0.56l-2.46-1.66
			c-0.52-0.347-0.914-0.733-1.18-1.16c-0.333-0.56-0.5-1.307-0.5-2.24c0-0.827,0.113-1.473,0.34-1.94
			c0.187-0.4,0.457-0.73,0.81-0.99c0.354-0.26,0.74-0.433,1.16-0.52c0.42-0.086,0.733-0.143,0.94-0.17s0.403-0.04,0.59-0.04
			c1.786,0,2.926,0.62,3.42,1.86c0.146,0.374,0.22,0.767,0.22,1.18v1.4h-2.6v-1.44c0-0.68-0.387-1.02-1.16-1.02
			c-0.773,0-1.16,0.467-1.16,1.4c0,0.64,0.093,1.093,0.28,1.36c0.066,0.094,0.247,0.247,0.54,0.46l2.52,1.74
			c0.453,0.293,0.84,0.66,1.16,1.1c0.066,0.093,0.126,0.18,0.18,0.26c0.053,0.08,0.1,0.17,0.14,0.27c0.04,0.1,0.073,0.18,0.1,0.24
			s0.05,0.147,0.07,0.26c0.02,0.114,0.033,0.193,0.04,0.24c0.006,0.047,0.013,0.14,0.02,0.28c0.006,0.14,0.01,0.227,0.01,0.26
			s0,0.137,0,0.31S140.27,65.396,140.27,65.437z"/>
		<path fill="#FFFFFF" d="M152.79,66.356c0,1.053-0.273,1.847-0.82,2.38c-0.68,0.627-1.7,0.94-3.06,0.94
			c-1.28,0-2.26-0.273-2.94-0.82c-0.347-0.28-0.58-0.573-0.7-0.88c-0.2-0.413-0.3-0.953-0.3-1.62v-7.92
			c0-1.187,0.293-2.04,0.88-2.56c0.693-0.613,1.72-0.92,3.08-0.92c0.947,0,1.713,0.16,2.3,0.48c0.586,0.32,1,0.713,1.24,1.18
			c0.213,0.44,0.32,1.066,0.32,1.88V66.356z M150.169,65.977v-7.3c0-0.56-0.054-0.94-0.16-1.14c-0.187-0.413-0.547-0.62-1.08-0.62
			c-0.333,0-0.613,0.087-0.84,0.26c-0.08,0.054-0.15,0.114-0.21,0.18c-0.06,0.067-0.107,0.14-0.14,0.22
			c-0.033,0.08-0.063,0.15-0.09,0.21c-0.027,0.06-0.043,0.143-0.05,0.25s-0.01,0.183-0.01,0.23s0,0.137,0,0.27s0,0.213,0,0.24v7.14
			c0,0.64,0.08,1.073,0.24,1.3c0.2,0.28,0.553,0.42,1.06,0.42c0.32,0,0.593-0.08,0.82-0.24c0.146-0.106,0.256-0.25,0.33-0.43
			c0.073-0.18,0.113-0.326,0.12-0.44C150.166,66.414,150.169,66.23,150.169,65.977z"/>
		<path fill="#FFFFFF" d="M165.429,66.196c0,0.96-0.213,1.713-0.64,2.26c-0.627,0.813-1.713,1.22-3.26,1.22
			c-1.28,0-2.24-0.34-2.88-1.02c-0.253-0.253-0.453-0.573-0.6-0.96c-0.174-0.426-0.26-0.946-0.26-1.56v-10.88h2.6v10.5
			c0,0.507,0.046,0.874,0.14,1.1c0.173,0.4,0.533,0.6,1.08,0.6c0.307,0,0.56-0.073,0.76-0.22c0.066-0.04,0.123-0.086,0.17-0.14
			c0.046-0.053,0.083-0.107,0.11-0.16s0.053-0.12,0.08-0.2s0.043-0.143,0.05-0.19c0.006-0.046,0.013-0.117,0.02-0.21
			c0.006-0.093,0.01-0.16,0.01-0.2c0-0.04,0-0.11,0-0.21c0-0.1,0-0.163,0-0.19v-10.48h2.62V66.196z"/>
		<path fill="#FFFFFF" d="M178.809,69.376h-2.7l-2-6.26h-0.98v6.26h-2.6v-14.12h5.2c1.693,0,2.54,0.84,2.54,2.52v2.56
			c0,0.707-0.124,1.24-0.37,1.6c-0.247,0.36-0.677,0.633-1.29,0.82L178.809,69.376z M175.689,59.696v-1.26
			c0-0.44-0.087-0.743-0.26-0.91c-0.173-0.167-0.487-0.25-0.94-0.25h-1.36v3.76h1.36c0.453,0,0.767-0.097,0.94-0.29
			S175.689,60.203,175.689,59.696z"/>
		<path fill="#FFFFFF" d="M190.849,66.077c0,0.733-0.067,1.293-0.2,1.68c-0.16,0.454-0.417,0.827-0.77,1.12
			c-0.354,0.293-0.757,0.49-1.21,0.59c-0.453,0.1-0.783,0.16-0.99,0.18c-0.207,0.02-0.417,0.03-0.63,0.03
			c-0.48,0-0.927-0.047-1.34-0.14c-1.227-0.24-2.02-0.8-2.38-1.68c-0.133-0.347-0.2-0.84-0.2-1.48v-7.68
			c0-0.173,0.013-0.42,0.04-0.74c0.04-0.947,0.373-1.673,1-2.18c0.693-0.546,1.667-0.82,2.92-0.82c1.12,0,2,0.213,2.64,0.64
			c0.413,0.28,0.707,0.626,0.88,1.04c0.16,0.333,0.24,0.867,0.24,1.6v2.16h-2.56v-1.78c0-0.587-0.087-1.01-0.26-1.27
			c-0.173-0.26-0.533-0.39-1.08-0.39c-0.467,0-0.784,0.13-0.95,0.39c-0.167,0.26-0.25,0.643-0.25,1.15v7.56
			c0,0.52,0.09,0.917,0.27,1.19s0.517,0.41,1.01,0.41c0.533,0,0.877-0.133,1.03-0.4c0.153-0.267,0.23-0.713,0.23-1.34v-1.84h2.56
			V66.077z"/>
		<path fill="#FFFFFF" d="M202.588,69.376h-7.04v-14.12h6.84v2.14h-4.24v3.32h4v2.14h-4v4.34h4.44V69.376z"/>
	</g>
</g>
</svg>
